<?xml version="1.0" encoding="utf-8"?>
<!-- Generator: Adobe Illustrator 22.0.1, SVG Export Plug-In . SVG Version: 6.00 Build 0)  -->
<svg version="1.1" id="Layer_1" xmlns="http://www.w3.org/2000/svg" xmlns:xlink="http://www.w3.org/1999/xlink" x="0px" y="0px" viewBox="0 0 370.8 60.6" style="enable-background:new 0 0 370.8 60.6;" xml:space="preserve">
    <style type="text/css">
        .st0 {
            fill: #F6994B;
        }

        .st1 {
            fill: #ffffff;
        }

    </style>
    <g>
        <path class="st0" d="M54.6,47.9c0,3.5-1.1,6.3-3.2,8.4c-2.2,2.2-5,3.2-8.5,3.2H1V47.9h41.8V36.1H11.7c-3.5,0-6.3-1.1-8.4-3.2
		c-2.2-2.2-3.2-5-3.2-8.4V12.7c0-3.3,1.1-6,3.4-8.3C5.7,2.1,8.4,1,11.7,1h38.9v11.7H11.7v11.8h31.1c3.4,0,6.2,1.1,8.4,3.3
		c2.2,2.2,3.3,5,3.3,8.3V47.9z" />
        <path class="st1" d="M121.7,30.3c0,8.3-3,15.4-8.9,21.4c-5.9,5.9-13,8.9-21.4,8.9c-8.4,0-15.5-3-21.5-8.9c-5.9-5.9-8.9-13-8.9-21.4
		c0-8.4,3-15.5,8.9-21.5C76,3,83.1,0,91.5,0c8.3,0,15.4,3,21.4,8.9C118.8,14.8,121.7,22,121.7,30.3z M110.1,30.3
		c0-5.1-1.8-9.5-5.4-13.2c-3.6-3.7-8-5.5-13.1-5.5c-5.1,0-9.5,1.8-13.2,5.5c-3.7,3.7-5.5,8-5.5,13.2c0,5.1,1.8,9.4,5.5,13.1
		c3.7,3.7,8,5.5,13.2,5.5c5.1,0,9.5-1.8,13.1-5.5C108.2,39.7,110.1,35.4,110.1,30.3z" />
        <path class="st1" d="M197.2,59.6H181L162,39L143,59.6h-16.2L154,30.3L126.8,1H143L162,21.6L181,1h16.2L170,30.3L197.2,59.6z" />
        <path class="st1" d="M253.2,30.3c0,8.3-3,15.4-8.9,21.4c-5.9,5.9-13,8.9-21.4,8.9c-8.4,0-15.5-3-21.5-8.9c-5.9-5.9-8.9-13-8.9-21.4
		c0-8.4,3-15.5,8.9-21.5C207.5,3,214.6,0,223,0c8.3,0,15.4,3,21.4,8.9C250.3,14.8,253.2,22,253.2,30.3z M241.6,30.3
		c0-5.1-1.8-9.5-5.4-13.2c-3.6-3.7-8-5.5-13.1-5.5c-5.1,0-9.5,1.8-13.2,5.5c-3.7,3.7-5.5,8-5.5,13.2c0,5.1,1.8,9.4,5.5,13.1
		c3.7,3.7,8,5.5,13.2,5.5c5.1,0,9.5-1.8,13.1-5.5C239.7,39.7,241.6,35.4,241.6,30.3z" />
        <path class="st1" d="M309.9,59.6h-46.8V1h11.7v46.9h35.1V59.6z" />
        <path class="st1" d="M370.8,30.3c0,8.3-3,15.4-8.9,21.4c-5.9,5.9-13,8.9-21.4,8.9c-8.4,0-15.5-3-21.5-8.9c-5.9-5.9-8.9-13-8.9-21.4
		c0-8.4,3-15.5,8.9-21.5C325,3,332.1,0,340.5,0c8.3,0,15.4,3,21.4,8.9C367.8,14.8,370.8,22,370.8,30.3z M359.1,30.3
		c0-5.1-1.8-9.5-5.4-13.2c-3.6-3.7-8-5.5-13.1-5.5c-5.1,0-9.5,1.8-13.2,5.5c-3.7,3.7-5.5,8-5.5,13.2c0,5.1,1.8,9.4,5.5,13.1
		c3.7,3.7,8,5.5,13.2,5.5c5.1,0,9.5-1.8,13.1-5.5C357.3,39.7,359.1,35.4,359.1,30.3z" />
    </g>
</svg>
