<?xml version="1.0" encoding="utf-8"?>
<!-- Generator: Adobe Illustrator 22.0.1, SVG Export Plug-In . SVG Version: 6.00 Build 0)  -->
<svg version="1.1" id="Capa_1" xmlns="http://www.w3.org/2000/svg" xmlns:xlink="http://www.w3.org/1999/xlink" x="0px" y="0px" viewBox="0 0 512 512" style="enable-background:new 0 0 512 512;" xml:space="preserve">
    <g>
        <g>
            <path d="M20,236h423.6l-70.2-69.8c-7.8-7.8-7.9-20.5-0.1-28.3c7.8-7.8,20.5-7.9,28.3-0.1l104.5,104c0,0,0,0,0,0
			c7.8,7.8,7.8,20.5,0,28.3c0,0,0,0,0,0l-104.5,104c-7.8,7.8-20.5,7.8-28.3-0.1c-7.8-7.8-7.8-20.5,0.1-28.3l70.2-69.8H20
			c-11,0-20-9-20-20C0,245,9,236,20,236z" fill="#fff" />
        </g>
    </g>
</svg>
